<?xml version="1.0" encoding="UTF-8" standalone="no"?>
<!DOCTYPE svg PUBLIC "-//W3C//DTD SVG 1.1//EN"
 "http://www.w3.org/Graphics/SVG/1.1/DTD/svg11.dtd">
<!-- Generated by graphviz version 2.36.0 (20140111.2315)
 -->
<!-- Title: %3 Pages: 1 -->
<svg width="650pt" height="644pt"
 viewBox="0.00 0.00 650.00 644.00" xmlns="http://www.w3.org/2000/svg" xmlns:xlink="http://www.w3.org/1999/xlink">
<g id="graph0" class="graph" transform="scale(1 1) rotate(0) translate(4 640)">
<title>%3</title>
<polygon fill="white" stroke="none" points="-4,4 -4,-640 646,-640 646,4 -4,4"/>
<!-- 0 -->
<g id="node1" class="node"><title>0</title>
<ellipse fill="none" stroke="black" cx="211" cy="-598" rx="101.174" ry="37.4533"/>
<text text-anchor="middle" x="211" y="-609.3" font-family="Times,serif" font-size="14.00">3,1,4</text>
<text text-anchor="middle" x="211" y="-594.3" font-family="Times,serif" font-size="14.00">Disciriminator: 0</text>
<text text-anchor="middle" x="211" y="-579.3" font-family="Times,serif" font-size="14.00">Discriminator Value: 3</text>
</g>
<!-- 1 -->
<g id="node2" class="node"><title>1</title>
<ellipse fill="none" stroke="black" cx="101" cy="-486" rx="101.174" ry="37.4533"/>
<text text-anchor="middle" x="101" y="-497.3" font-family="Times,serif" font-size="14.00">2,3,7</text>
<text text-anchor="middle" x="101" y="-482.3" font-family="Times,serif" font-size="14.00">Disciriminator: 1</text>
<text text-anchor="middle" x="101" y="-467.3" font-family="Times,serif" font-size="14.00">Discriminator Value: 3</text>
</g>
<!-- 0&#45;&gt;1 -->
<g id="edge1" class="edge"><title>0&#45;&gt;1</title>
<path fill="none" stroke="black" d="M176.497,-562.497C165.747,-551.747 153.777,-539.777 142.594,-528.594"/>
<polygon fill="black" stroke="black" points="144.926,-525.977 135.38,-521.38 139.977,-530.926 144.926,-525.977"/>
</g>
<!-- 2 -->
<g id="node3" class="node"><title>2</title>
<ellipse fill="none" stroke="black" cx="321" cy="-486" rx="101.174" ry="37.4533"/>
<text text-anchor="middle" x="321" y="-497.3" font-family="Times,serif" font-size="14.00">4,3,4</text>
<text text-anchor="middle" x="321" y="-482.3" font-family="Times,serif" font-size="14.00">Disciriminator: 1</text>
<text text-anchor="middle" x="321" y="-467.3" font-family="Times,serif" font-size="14.00">Discriminator Value: 3</text>
</g>
<!-- 0&#45;&gt;2 -->
<g id="edge2" class="edge"><title>0&#45;&gt;2</title>
<path fill="none" stroke="black" d="M245.503,-562.497C256.253,-551.747 268.223,-539.777 279.406,-528.594"/>
<polygon fill="black" stroke="black" points="282.023,-530.926 286.62,-521.38 277.074,-525.977 282.023,-530.926"/>
</g>
<!-- 3 -->
<g id="node4" class="node"><title>3</title>
<ellipse fill="none" stroke="black" cx="101" cy="-374" rx="101.174" ry="37.4533"/>
<text text-anchor="middle" x="101" y="-385.3" font-family="Times,serif" font-size="14.00">2,1,3</text>
<text text-anchor="middle" x="101" y="-370.3" font-family="Times,serif" font-size="14.00">Disciriminator: 2</text>
<text text-anchor="middle" x="101" y="-355.3" font-family="Times,serif" font-size="14.00">Discriminator Value: 3</text>
</g>
<!-- 1&#45;&gt;3 -->
<g id="edge3" class="edge"><title>1&#45;&gt;3</title>
<path fill="none" stroke="black" d="M101,-448.372C101,-439.927 101,-430.829 101,-422.011"/>
<polygon fill="black" stroke="black" points="104.5,-421.843 101,-411.844 97.5001,-421.844 104.5,-421.843"/>
</g>
<!-- 5 -->
<g id="node6" class="node"><title>5</title>
<ellipse fill="none" stroke="black" cx="321" cy="-374" rx="101.174" ry="37.4533"/>
<text text-anchor="middle" x="321" y="-385.3" font-family="Times,serif" font-size="14.00">6,1,4</text>
<text text-anchor="middle" x="321" y="-370.3" font-family="Times,serif" font-size="14.00">Disciriminator: 2</text>
<text text-anchor="middle" x="321" y="-355.3" font-family="Times,serif" font-size="14.00">Discriminator Value: 4</text>
</g>
<!-- 2&#45;&gt;5 -->
<g id="edge5" class="edge"><title>2&#45;&gt;5</title>
<path fill="none" stroke="black" d="M321,-448.372C321,-439.927 321,-430.829 321,-422.011"/>
<polygon fill="black" stroke="black" points="324.5,-421.843 321,-411.844 317.5,-421.844 324.5,-421.843"/>
</g>
<!-- 4 -->
<g id="node5" class="node"><title>4</title>
<ellipse fill="none" stroke="black" cx="101" cy="-262" rx="101.174" ry="37.4533"/>
<text text-anchor="middle" x="101" y="-273.3" font-family="Times,serif" font-size="14.00">2,4,5</text>
<text text-anchor="middle" x="101" y="-258.3" font-family="Times,serif" font-size="14.00">Disciriminator: 0</text>
<text text-anchor="middle" x="101" y="-243.3" font-family="Times,serif" font-size="14.00">Discriminator Value: 2</text>
</g>
<!-- 3&#45;&gt;4 -->
<g id="edge4" class="edge"><title>3&#45;&gt;4</title>
<path fill="none" stroke="black" d="M101,-336.372C101,-327.927 101,-318.829 101,-310.011"/>
<polygon fill="black" stroke="black" points="104.5,-309.843 101,-299.844 97.5001,-309.844 104.5,-309.843"/>
</g>
<!-- 6 -->
<g id="node7" class="node"><title>6</title>
<ellipse fill="none" stroke="black" cx="101" cy="-150" rx="101.174" ry="37.4533"/>
<text text-anchor="middle" x="101" y="-161.3" font-family="Times,serif" font-size="14.00">1,4,4</text>
<text text-anchor="middle" x="101" y="-146.3" font-family="Times,serif" font-size="14.00">Disciriminator: 1</text>
<text text-anchor="middle" x="101" y="-131.3" font-family="Times,serif" font-size="14.00">Discriminator Value: 4</text>
</g>
<!-- 4&#45;&gt;6 -->
<g id="edge6" class="edge"><title>4&#45;&gt;6</title>
<path fill="none" stroke="black" d="M101,-224.372C101,-215.927 101,-206.829 101,-198.011"/>
<polygon fill="black" stroke="black" points="104.5,-197.843 101,-187.844 97.5001,-197.844 104.5,-197.843"/>
</g>
<!-- 8 -->
<g id="node9" class="node"><title>8</title>
<ellipse fill="none" stroke="black" cx="321" cy="-262" rx="101.174" ry="37.4533"/>
<text text-anchor="middle" x="321" y="-273.3" font-family="Times,serif" font-size="14.00">5,2,5</text>
<text text-anchor="middle" x="321" y="-258.3" font-family="Times,serif" font-size="14.00">Disciriminator: 0</text>
<text text-anchor="middle" x="321" y="-243.3" font-family="Times,serif" font-size="14.00">Discriminator Value: 5</text>
</g>
<!-- 5&#45;&gt;8 -->
<g id="edge8" class="edge"><title>5&#45;&gt;8</title>
<path fill="none" stroke="black" d="M321,-336.372C321,-327.927 321,-318.829 321,-310.011"/>
<polygon fill="black" stroke="black" points="324.5,-309.843 321,-299.844 317.5,-309.844 324.5,-309.843"/>
</g>
<!-- 9 -->
<g id="node10" class="node"><title>9</title>
<ellipse fill="none" stroke="black" cx="541" cy="-262" rx="101.174" ry="37.4533"/>
<text text-anchor="middle" x="541" y="-273.3" font-family="Times,serif" font-size="14.00">4,0,6</text>
<text text-anchor="middle" x="541" y="-258.3" font-family="Times,serif" font-size="14.00">Disciriminator: 0</text>
<text text-anchor="middle" x="541" y="-243.3" font-family="Times,serif" font-size="14.00">Discriminator Value: 4</text>
</g>
<!-- 5&#45;&gt;9 -->
<g id="edge9" class="edge"><title>5&#45;&gt;9</title>
<path fill="none" stroke="black" d="M379.956,-343.522C408.562,-329.219 443.085,-311.957 472.819,-297.09"/>
<polygon fill="black" stroke="black" points="474.502,-300.162 481.881,-292.559 471.372,-293.901 474.502,-300.162"/>
</g>
<!-- 7 -->
<g id="node8" class="node"><title>7</title>
<ellipse fill="none" stroke="black" cx="101" cy="-38" rx="101.174" ry="37.4533"/>
<text text-anchor="middle" x="101" y="-49.3" font-family="Times,serif" font-size="14.00">0,5,7</text>
<text text-anchor="middle" x="101" y="-34.3" font-family="Times,serif" font-size="14.00">Disciriminator: 2</text>
<text text-anchor="middle" x="101" y="-19.3" font-family="Times,serif" font-size="14.00">Discriminator Value: 7</text>
</g>
<!-- 6&#45;&gt;7 -->
<g id="edge7" class="edge"><title>6&#45;&gt;7</title>
<path fill="none" stroke="black" d="M101,-112.372C101,-103.927 101,-94.8286 101,-86.0106"/>
<polygon fill="black" stroke="black" points="104.5,-85.8435 101,-75.8435 97.5001,-85.8435 104.5,-85.8435"/>
</g>
<!-- 10 -->
<g id="node11" class="node"><title>10</title>
<ellipse fill="none" stroke="black" cx="321" cy="-150" rx="101.174" ry="37.4533"/>
<text text-anchor="middle" x="321" y="-161.3" font-family="Times,serif" font-size="14.00">7,1,6</text>
<text text-anchor="middle" x="321" y="-146.3" font-family="Times,serif" font-size="14.00">Disciriminator: 1</text>
<text text-anchor="middle" x="321" y="-131.3" font-family="Times,serif" font-size="14.00">Discriminator Value: 1</text>
</g>
<!-- 8&#45;&gt;10 -->
<g id="edge10" class="edge"><title>8&#45;&gt;10</title>
<path fill="none" stroke="black" d="M321,-224.372C321,-215.927 321,-206.829 321,-198.011"/>
<polygon fill="black" stroke="black" points="324.5,-197.843 321,-187.844 317.5,-197.844 324.5,-197.843"/>
</g>
</g>
</svg>
